inDegrees=no
num_controls=7
num_derivatives=13
num_iterations=147
num_multipliers=7
num_parameters=0
num_slacks=7
num_states=26
objective=5.603469
objective_accelerations=0.606636
objective_balance=0.014184
objective_effort=0.456503
objective_height=4.479096
objective_ligament=0.047051
solver_duration=1314.102721
status=Solve_Succeeded
success=true
DataType=double
version=3
OpenSimVersion=4.4-2022-07-23-0e9fedc
endheader
time	/jointset/ground_pelvis/pelvis_tilt/value	/jointset/ground_pelvis/pelvis_tx/value	/jointset/ground_pelvis/pelvis_ty/value	/jointset/hip_r/hip_flexion_r/value	/jointset/hip_r/hip_adduction_r/value	/jointset/hip_r/hip_rotation_r/value	/jointset/back/lumbar_extension/value	/jointset/patellofemoral_r/patellar_flexion_r/value	/jointset/knee_r/knee_flexion_r/value	/jointset/knee_r/knee_adduction_r/value	/jointset/knee_r/knee_rotation_r/value	/jointset/ankle_r/ankle_angle_r/value	/jointset/subtalar_r/subtalar_angle_r/value	/jointset/ground_pelvis/pelvis_tilt/speed	/jointset/ground_pelvis/pelvis_tx/speed	/jointset/ground_pelvis/pelvis_ty/speed	/jointset/hip_r/hip_flexion_r/speed	/jointset/hip_r/hip_adduction_r/speed	/jointset/hip_r/hip_rotation_r/speed	/jointset/back/lumbar_extension/speed	/jointset/patellofemoral_r/patellar_flexion_r/speed	/jointset/knee_r/knee_flexion_r/speed	/jointset/knee_r/knee_adduction_r/speed	/jointset/knee_r/knee_rotation_r/speed	/jointset/ankle_r/ankle_angle_r/speed	/jointset/subtalar_r/subtalar_angle_r/speed	/forceset/tau_hip_flexion_r	/forceset/tau_hip_adduction_r	/forceset/tau_hip_rotation_r	/forceset/tau_knee_flexion_r	/forceset/tau_ankle_angle_r	/forceset/tau_subtalar_angle_r	/forceset/tau_lumbar_extension	lambda_cid13_p0	lambda_cid14_p0	lambda_cid14_p1	lambda_cid14_p2	lambda_cid14_p3	lambda_cid14_p4	lambda_cid14_p5	/jointset/ground_pelvis/pelvis_tilt/accel	/jointset/ground_pelvis/pelvis_tx/accel	/jointset/ground_pelvis/pelvis_ty/accel	/jointset/hip_r/hip_flexion_r/accel	/jointset/hip_r/hip_adduction_r/accel	/jointset/hip_r/hip_rotation_r/accel	/jointset/back/lumbar_extension/accel	/jointset/patellofemoral_r/patellar_flexion_r/accel	/jointset/knee_r/knee_flexion_r/accel	/jointset/knee_r/knee_adduction_r/accel	/jointset/knee_r/knee_rotation_r/accel	/jointset/ankle_r/ankle_angle_r/accel	/jointset/subtalar_r/subtalar_angle_r/accel	gamma_cid13_p0	gamma_cid14_p0	gamma_cid14_p1	gamma_cid14_p2	gamma_cid14_p3	gamma_cid14_p4	gamma_cid14_p5
0	-0.001380599849453973	0.1286664404677484	0.9341326843061053	0.1934208783645156	-0.2190885784549381	-0.2366453339371713	-0.2903791543005566	0.2311793314021618	0.2311793314021609	0.1132641663693393	0.1629509696306092	0.08934340440958972	0.07507197107184858	0	0	0	0	0	0	0	0	0	0	0	0	0	0.1101238949666381	-0.0638046322386209	0.001956768905068555	-0.2461267264733996	0.124435707751455	-0.06632904529140209	-0.02933149255267094	-29.56074577825841	-5.301902046208374	-25.49727262820625	-0.3536408936212705	0.3802378540231329	-610.0207470187103	56.29870367872613	-1.879695376315357	-1.808490951517234	-0.8551727679743575	9.903001721811231	0.09540654909533737	1.896440838086638	-6.223822690471748	10.14294699574237	10.14294699574266	-2.850423839383692	0.5440635126837204	2.820350479818104	0.9391938089842213	3.888746763508798e-08	1.960726980499857e-08	-2.87375275441889e-07	2.324729657252723e-07	1.37404343170722e-08	1.260868801678214e-07	-2.735353424344031e-07
0.01	-0.001468595977453292	0.1285772752749726	0.9340910945999457	0.1939032740508611	-0.2190821722280773	-0.2365507348350095	-0.2906925566194479	0.2316772803786194	0.2316772803786148	0.1131206510301058	0.1629751361474487	0.08948240330504635	0.07512035702678449	-0.01753710117122873	-0.01773042301447068	-0.008298563800140536	0.09605400707099623	0.001248668755510338	0.01884009727364183	-0.06233590697408172	0.0991825778850903	0.09918257788509158	-0.02852181469831199	0.004815739799692586	0.02771244924652326	0.009613277458675608	0.10730418272221	-0.06958615515692887	0.002148636789524571	-0.2445431152662826	0.1216669296052523	-0.06047819755701965	-0.02657855595587775	-29.56660955090935	-5.904814867321472	-22.94673174275806	-0.8917200799015915	-0.1586677900788411	-611.3707911101533	61.47583820577282	-1.681400382255574	-1.739922897305714	-0.8142663538856572	9.392830859163734	0.1347086824543024	1.865882716890769	-6.18679118006359	9.744822796922003	9.744822796922005	-2.825895912950542	0.4477403137606601	2.73359801202555	0.9627900849552229	4.844936978613407e-08	9.580620909516905e-09	-3.402151220853159e-07	2.741700613466271e-07	2.890444091649574e-08	2.968011006115542e-08	-3.251980020626522e-07
0.02	-0.00173009969611493	0.1283138848678735	0.9339671056222143	0.1953334559397734	-0.2190642569849278	-0.2362701170511265	-0.2916189813039236	0.2331548370563032	0.233154837056305	0.1126973504182571	0.163046942282379	0.08989590786595965	0.07526295483043628	-0.03470151813159227	-0.03484504286469298	-0.01647985431436315	0.1895572405187995	0.002301803258037165	0.03720373634279237	-0.1226044731156452	0.1959215402513654	0.1959215402513637	-0.0559570545124442	0.009527923605325712	0.05490113309128977	0.01884236974318939	0.104484470477556	-0.07536767807523004	0.002340504674221964	-0.2429595040592905	0.1188981514590132	-0.05462734982264262	-0.02382561935925136	-29.58375714865539	-6.428690270996909	-20.39868665360214	-1.41074263149917	-0.66345237419299	-611.4518899635945	66.37433878527671	-1.805158534142276	-1.685330318667585	-0.83171811079077	9.392846997172629	0.05629969849863073	1.801149197188387	-5.810354523968072	9.654223891979342	9.654223891978782	-2.633108862547731	0.5233523138718323	2.715597399466726	0.8623567741518389	5.801127193718017e-08	-4.460279859647585e-10	-3.930549687287427e-07	3.15867156967982e-07	4.406844751591928e-08	-6.672666004551052e-08	-3.768606616909013e-07
0.03	-0.002161665939640559	0.1278824090688124	0.9337616601979196	0.1976859580997969	-0.2190367301378625	-0.2358089724705383	-0.2931363796494592	0.2355869738947579	0.2355869738947592	0.1120051981117243	0.1631656179056145	0.09057827711596739	0.07549591424270888	-0.05153843080312466	-0.05134857251073375	-0.02460569066509543	0.2804758915028585	0.003195113052467966	0.0549326553319949	-0.1804361359618432	0.2900244413450924	0.2900244413450889	-0.08231563988673941	0.0141454628265491	0.08144978957126595	0.0277077155862761	0.09938817169874098	-0.0711079900527469	0.002595576234393364	-0.2386435035985611	0.1141526342077976	-0.05486519806226267	-0.01943154366105616	-29.61149493207902	-7.970202765461136	-20.7313786550144	-1.403978266673515	-0.334435630766456	-611.9473689609638	64.74487705927754	-1.611959325273417	-1.61762374715615	-0.8024991501418489	8.871280697312578	0.1045821095381273	1.744947805664031	-5.703713160430164	9.216103662963414	9.216103662963555	-2.613598613856874	0.4217555824738612	2.6060658133059	0.8923301930443711	5.975632193185308e-08	-1.138717418027706e-08	-3.839310342179683e-07	3.218082744765922e-07	5.373314808404407e-08	-1.672684849760714e-07	-3.782943501967834e-07
0.04	-0.002759401648209031	0.1272889460813741	0.9334750598595319	0.2009336280793237	-0.2190005230949307	-0.2351733017888834	-0.2952189228225532	0.2389456958331333	0.2389456958331345	0.111054186903656	0.1633286290923012	0.09152244613898355	0.07581626845414376	-0.06793541113923159	-0.06724248054014299	-0.03271083713297814	0.3685908044185187	0.00403784243181389	0.07210895655631226	-0.2356334386274149	0.3812385602345796	0.381238560234579	-0.1077288348204914	0.01839503629682297	0.1072610876929548	0.03632132957565334	0.09429187291999493	-0.06684830203026713	0.002850647794547565	-0.2343275031378032	0.109407116956589	-0.05510304630188467	-0.01503746796280623	-29.64857073349244	-9.439497113377417	-21.06750060780062	-1.378305616179516	0.017614376412269	-611.2854722240238	62.85973057722693	-1.717172067057132	-1.563405995341302	-0.8275801342208507	8.832099383492871	0.04618361548164631	1.690625644211362	-5.283482487842777	9.076467451131377	9.076467451131769	-2.444030774439067	0.449759163681929	2.568125727809232	0.8120104034099282	6.134019971711622e-08	-2.234717598899823e-08	-3.735294959720557e-07	3.270121553230839e-07	6.328446089894622e-08	-2.678955687689807e-07	-3.786923898135444e-07
0.05	-0.003519364732430822	0.1265394779497661	0.9331072186411543	0.2050493995425059	-0.218956459624369	-0.2343691739308764	-0.2978404783397096	0.2432028288276089	0.2432028288275943	0.1098542835497461	0.1635329819757197	0.09272106523494388	0.07622114625635953	-0.08398249781336499	-0.0825594192245333	-0.04087435721195181	0.4541302027618042	0.00476471646951938	0.08861051722249964	-0.2883098018259247	0.4697450252273254	0.4697450252273257	-0.1320956410318379	0.02241901015237026	0.1323425396614405	0.04461352814410481	0.08926560774654303	-0.06504162716539554	0.003111494402804395	-0.2308009995017854	0.1047212703652692	-0.05313071443932683	-0.01085807199984103	-29.69360805589237	-10.76649070966461	-20.39702682067178	-1.538011216960947	0.2741719694834499	-610.6704654374229	63.08882836114632	-1.537262755598737	-1.502066087421159	-0.8133349374060602	8.349869972736732	0.08443212383585232	1.614070073261226	-5.204533789071756	8.671271727917953	8.671271727917885	-2.409600511732657	0.3702994012512046	2.460128769887812	0.8317005628266999	5.439303363225057e-08	-3.093137338875824e-08	-3.002004361959633e-07	2.995452141608105e-07	6.397471361402876e-08	-3.39580162064673e-07	-3.299457392521746e-07
0.06	-0.004437555840999394	0.1256395947748274	0.9326572228234529	0.2100075669717146	-0.2189054288482493	-0.2334032007071209	-0.3009777615994961	0.2483317336129018	0.2483317336129032	0.108415393140263	0.163775891178696	0.09416689361829182	0.07670772124011256	-0.09958101600777924	-0.09732548920626852	-0.04914175699774725	0.5370699976247049	0.005431303544050902	0.1044780297062363	-0.3387789871530954	0.5555929184029418	0.5555929184029424	-0.1555262459331938	0.02610630019831643	0.1567029451707087	0.05266076588311398	0.0842393425730813	-0.06323495230050014	0.003372341011290778	-0.2272744958657844	0.100035423773954	-0.05115838257674185	-0.006678676036891631	-29.74487603563052	-12.02820056968367	-19.72807157630531	-1.682683682789402	0.5419427752404635	-609.022495548541	63.09858397113825	-1.627458371113272	-1.453232254810294	-0.8483560755852023	8.312178687415898	0.03412622284684736	1.563816007721238	-4.842046913574903	8.544753087705486	8.544753087705793	-2.256790512440932	0.382422401761703	2.423916435965718	0.763018237521449	4.70866657002216e-08	-3.941553691866724e-08	-2.242217965659687e-07	2.707026594402734e-07	6.429186906175049e-08	-4.100461241815351e-07	-2.791298385780415e-07
0.07000000000000001	-0.005510001235918023	0.1245948737662365	0.9321238200230131	0.2157826774836717	-0.2188483377585262	-0.2322821574500517	-0.3046080296370057	0.2543060447346563	0.2543060447346512	0.106747480089224	0.164054495767055	0.09585272721448339	0.07727319508258305	-0.1148357803843915	-0.1115184489079919	-0.05756820145284713	0.6175073941668623	0.005979258925803775	0.1196153008279463	-0.3868914706044652	0.6388129837935602	0.6388129837935617	-0.1778983749844687	0.02954911119257294	0.1803442269887922	0.06039840199583815	0.07881300380058875	-0.0606237488955891	0.003606728397672707	-0.224184666553261	0.09587948395038555	-0.0494799658278169	-0.002198520677187735	-29.80057924837774	-13.15939606670448	-19.18161692977614	-1.787602150179757	0.6420051862337688	-607.7697552242447	62.80771943910851	-1.463632301683435	-1.387275425075503	-0.8442812482229338	7.842816778594418	0.06400831283369089	1.471433019658171	-4.738376599209833	8.142175612943166	8.142175612943083	-2.203730514782368	0.3154338121851367	2.316299889385799	0.7737951259954243	3.477441163381245e-08	-4.85827780526312e-08	-1.257470058878316e-07	1.788851111758232e-07	6.221675038892868e-08	-4.781158904907711e-07	-1.719409955849942e-07
